<svg id="Layer_1" data-name="Layer 1" xmlns="http://www.w3.org/2000/svg" xmlns:xlink="http://www.w3.org/1999/xlink" viewBox="0 0 212.46 56.69"><defs><style>.cls-1{fill:#0061af;}.cls-2{fill:url(#linear-gradient);}</style><linearGradient id="linear-gradient" x1="148.26" y1="21.11" x2="187.34" y2="21.11" gradientUnits="userSpaceOnUse"><stop offset="0" stop-color="#0061af"/><stop offset="1" stop-color="#00aeef"/></linearGradient></defs><title>logo-pay</title><path class="cls-1" d="M199.39,314.71,180.66,343H175V314.71h4.73v21.2l14-21.2ZM188.5,350.13l17.18-42.52H175l-17.18,42.52Zm44.28-30.7h-8.84l-9.54,23.62h-5.1l9.54-23.62H210l1.91-4.73h22.75Zm-8.46,30.7,17.18-42.52H210.79l-17.18,42.52Zm44-16.88h0c-3.77,9-11.83,14.42-18,12h0c-6.17-2.42-8.12-11.72-4.35-20.76h0c3.77-9,11.83-14.42,18-12h0l1.54-3.81-.46-.16-.22-.08c-7.5-2.31-17,4.24-21.46,15h0c-4.64,11.14-2.24,22.59,5.37,25.58l.72.25.2.05.53.14.54.1.2,0c7.23,1.11,15.78-5.27,20-15.37h0l0-.09-2.58-1,0,.11m-7.05-3c1.24-3.16.57-6.35-1.53-7.28l-.12-.06h0c-2.24-.87-5.16,1.07-6.53,4.35s-.66,6.65,1.58,7.53h0c2.24.88,5.16-1.07,6.53-4.35l.07-.19M263,331l-.06.17h0c-2,4.71-6.15,7.5-9.37,6.27h0l-.15-.07-.14-.06,0,0c-3-1.46-3.84-6.13-1.95-10.69h0c2-4.71,6.15-7.51,9.37-6.27h0l.09,0,.08,0,.13.05.06,0c2.9,1.45,3.78,6,2,10.5m-.89-14.15h0a6.27,6.27,0,0,0-2.21-.42c-4.1-.05-8.67,3.63-11,9.24h0a17.14,17.14,0,0,0-1.37,7.84v.12c0,.14,0,.29,0,.43s0,.3.06.44v.1c.49,3,2,5.38,4.44,6.32a6.43,6.43,0,0,0,3.13.38c3.84-.45,7.93-4,10.09-9.19h0l.05-.14a17.11,17.11,0,0,0,1.31-7.69c0-.09,0-.19,0-.28s0-.18,0-.27c-.39-3.24-1.94-5.82-4.46-6.84l-.06,0m13.69,19.32-3-1.22,0,.07h0c-5.28,12.67-16.57,20.2-25.22,16.81s-11.38-16.41-6.1-29.08h0c5.27-12.64,16.51-20.16,25.16-16.83l1.8-4.45a14.17,14.17,0,0,0-2.87-.76h-.07l-.44-.06-.31,0-.21,0c-9.58-.78-20.58,7.74-26.09,21h0c-6.3,15.12-3,30.65,7.28,34.7h0a13.94,13.94,0,0,0,3,.8h.07l.44.06.31,0,.2,0c9.58.78,20.58-7.74,26.09-21h0v0" transform="translate(-157.79 -300.52)"/><path class="cls-1" d="M362.08,307.67l-10,10-10-10H328.38a13.9,13.9,0,0,1,9.87,4.09h0l9.87,9.87-10,10a13.94,13.94,0,0,1-9.76,4h14l27.91-27.91Z" transform="translate(-157.79 -300.52)"/><path class="cls-1" d="M334,313.25a5.58,5.58,0,0,0-5.58-5.58H317.22a5.58,5.58,0,0,0-5.58,5.58h16.75V330H311.64V318.84l-5.58,5.58V330a5.58,5.58,0,0,0,5.58,5.58h16.74A5.58,5.58,0,0,0,334,330h0V313.25Z" transform="translate(-157.79 -300.52)"/><path class="cls-1" d="M306.06,313.25a5.58,5.58,0,0,0-5.58-5.58H283.73a5.58,5.58,0,0,0-5.58,5.58v22.33h5.58V324.42h22.33V313.25Zm-5.58.49v5.09H283.73v-5.58h16.75Z" transform="translate(-157.79 -300.52)"/><polygon class="cls-2" points="179.2 12.97 178.96 12.74 178.96 18.32 153.85 18.32 148.26 23.9 178.96 23.9 178.96 29.48 178.99 29.45 187.34 21.11 179.2 12.97"/></svg>